<svg xmlns="http://www.w3.org/2000/svg" xmlns:xlink="http://www.w3.org/1999/xlink" width="49.054" height="29.656" viewBox="0 0 49.054 29.656">
  <defs>
    <linearGradient id="linear-gradient" x1="0.18" y1="0.143" x2="0.848" y2="1" gradientUnits="objectBoundingBox">
      <stop offset="0" stop-color="#9e96f4"/>
      <stop offset="1" stop-color="#7970db"/>
    </linearGradient>
  </defs>
  <path id="Subtraction_7" data-name="Subtraction 7" d="M20.656,29.656H17.617v-2.3a7.142,7.142,0,0,1,2.953-5.834,6.761,6.761,0,0,1,1.872-.941,6.657,6.657,0,0,1,4.46.141,1.491,1.491,0,0,0,1.405-.172,1.566,1.566,0,0,0,.572-.75,1.619,1.619,0,0,0-.037-1.211,1.545,1.545,0,0,0-.856-.829,9.716,9.716,0,0,0-5.5-.435,9.67,9.67,0,0,0-1.862.6,9.85,9.85,0,0,0-1.685.945,10.089,10.089,0,0,0-1.468,1.25,10.3,10.3,0,0,0-2.128,3.254,10.445,10.445,0,0,0-.58,1.921,10.65,10.65,0,0,0-.2,2.063v2.3H11.954V26.915a13.252,13.252,0,0,1,1.9-6.851,1.655,1.655,0,0,0,.2-1.225,1.611,1.611,0,0,0-.7-1.01,1.531,1.531,0,0,0-1.583-.049,1.594,1.594,0,0,0-.583.567A16.457,16.457,0,0,0,9.417,22.46a16.675,16.675,0,0,0-.6,4.456v2.741h-.1a8.454,8.454,0,0,1-3.368-.7,8.74,8.74,0,0,1-1.48-.821,8.929,8.929,0,0,1-1.294-1.087A8.944,8.944,0,0,1,0,20.759a8.823,8.823,0,0,1,.441-2.754,9.085,9.085,0,0,1,3.094-4.363A8.688,8.688,0,0,1,5.9,12.35,13.618,13.618,0,0,1,10,3.564a13.025,13.025,0,0,1,1.868-1.492A12.723,12.723,0,0,1,13.987.951a12.505,12.505,0,0,1,9.975.172,12.671,12.671,0,0,1,2.288,1.354,13.237,13.237,0,0,1,2,1.837,9.827,9.827,0,0,1,2.419-1.023,9.463,9.463,0,0,1,2.471-.328,9.642,9.642,0,0,1,1.82.175,9.908,9.908,0,0,1,1.746.508,10.147,10.147,0,0,1,1.628.818,10.252,10.252,0,0,1,3.735,4.07,10.542,10.542,0,0,1,1.092,3.822,8.687,8.687,0,0,1,2.361,1.293,9.085,9.085,0,0,1,3.088,4.36,8.826,8.826,0,0,1,.44,2.751,8.962,8.962,0,0,1-3.87,7.375,8.739,8.739,0,0,1-1.48.821,8.454,8.454,0,0,1-3.368.7h-.124V26.915a16.676,16.676,0,0,0-.575-4.355,16.479,16.479,0,0,0-1.651-3.969,16.131,16.131,0,0,0-2.608-3.378,15.724,15.724,0,0,0-3.447-2.582A15.42,15.42,0,0,0,28.3,11.189a15.244,15.244,0,0,0-8.3.2,15.468,15.468,0,0,0-4.193,2.032,1.616,1.616,0,0,0-.672,1.032,1.656,1.656,0,0,0,.232,1.22,1.56,1.56,0,0,0,1.312.725,1.533,1.533,0,0,0,.87-.272,12.273,12.273,0,0,1,3.306-1.616,12.086,12.086,0,0,1,3.618-.555h.03A12.187,12.187,0,0,1,29.4,14.976a12.443,12.443,0,0,1,2.133,1.195,12.743,12.743,0,0,1,1.859,1.582,13.009,13.009,0,0,1,2.691,4.119,13.194,13.194,0,0,1,.732,2.432,13.454,13.454,0,0,1,.255,2.611v2.741H34.416v-2.3a10.622,10.622,0,0,0-.309-2.587,10.507,10.507,0,0,0-.928-2.424,1.562,1.562,0,0,0-.575-.593,1.5,1.5,0,0,0-1.525,0,1.572,1.572,0,0,0-.721.961,1.622,1.622,0,0,0,.149,1.206,7.245,7.245,0,0,1,.639,1.662,7.323,7.323,0,0,1,.217,1.773v2.3H28.7v-.892a4.4,4.4,0,0,0-.328-1.676,4.3,4.3,0,0,0-.894-1.368,4.153,4.153,0,0,0-1.326-.922,4.067,4.067,0,0,0-3.248,0,4.153,4.153,0,0,0-1.326.922,4.3,4.3,0,0,0-.894,1.368,4.4,4.4,0,0,0-.328,1.676,1.448,1.448,0,0,0,.3.892Zm5.261,0H22.835a1.448,1.448,0,0,0,.3-.892,1.449,1.449,0,0,1,.407-1.015,1.361,1.361,0,0,1,1.967,0,1.449,1.449,0,0,1,.407,1.015v.892Z" transform="translate(0 0)" fill="url(#linear-gradient)"/>
</svg>
